<?xml version="1.0" encoding="UTF-8" standalone="no"?>
<!-- Created with Inkscape (http://www.inkscape.org/) -->

<svg
   width="400"
   height="225"
   viewBox="0 0 105.83333 59.53125"
   version="1.1"
   id="svg1"
   inkscape:version="1.3 (0e150ed, 2023-07-21)"
   sodipodi:docname="homepage-understand-customers-products.svg"
   xml:space="preserve"
   xmlns:inkscape="http://www.inkscape.org/namespaces/inkscape"
   xmlns:sodipodi="http://sodipodi.sourceforge.net/DTD/sodipodi-0.dtd"
   xmlns:xlink="http://www.w3.org/1999/xlink"
   xmlns="http://www.w3.org/2000/svg"
   xmlns:svg="http://www.w3.org/2000/svg"><sodipodi:namedview
     id="namedview1"
     pagecolor="#ffffff"
     bordercolor="#000000"
     borderopacity="0.25"
     inkscape:showpageshadow="2"
     inkscape:pageopacity="0.0"
     inkscape:pagecheckerboard="0"
     inkscape:deskcolor="#d1d1d1"
     inkscape:document-units="mm"
     inkscape:zoom="2.3786088"
     inkscape:cx="228.07449"
     inkscape:cy="134.53242"
     inkscape:window-width="1728"
     inkscape:window-height="1051"
     inkscape:window-x="0"
     inkscape:window-y="38"
     inkscape:window-maximized="0"
     inkscape:current-layer="layer13"
     showgrid="true"><inkscape:grid
       id="grid3"
       units="mm"
       originx="0"
       originy="0"
       spacingx="0.99999997"
       spacingy="1"
       empcolor="#0099e5"
       empopacity="0.30196078"
       color="#0099e5"
       opacity="0.14901961"
       empspacing="5"
       dotted="false"
       gridanglex="30"
       gridanglez="30"
       visible="true" /></sodipodi:namedview><defs
     id="defs1"><linearGradient
       id="linearGradient1"
       inkscape:collect="always"><stop
         style="stop-color:#15243c;stop-opacity:1;"
         offset="0"
         id="stop1" /><stop
         style="stop-color:#3b64a5;stop-opacity:1;"
         offset="1"
         id="stop2" /></linearGradient><linearGradient
       inkscape:collect="always"
       xlink:href="#linearGradient1"
       id="linearGradient2"
       x1="-1.6011652"
       y1="29.416843"
       x2="107.47034"
       y2="29.416843"
       gradientUnits="userSpaceOnUse" /></defs><g
     inkscape:label="Layer 1"
     inkscape:groupmode="layer"
     id="layer1"><rect
       style="fill:url(#linearGradient2);fill-opacity:1;stroke:#f0b914;stroke-width:1;stroke-linecap:square;stroke-miterlimit:0;paint-order:fill markers stroke;stroke-opacity:0"
       id="rect1"
       width="108.0715"
       height="60.721397"
       x="-1.1011652"
       y="-0.94385588" /><path
       style="fill:#ebf5ff;fill-opacity:1;stroke:#ebf5ff;stroke-width:10;stroke-linecap:square;stroke-miterlimit:0;stroke-dasharray:none;stroke-opacity:0;paint-order:fill markers stroke"
       d="m 69.565927,24.976962 7.230242,-1.557283"
       id="path5" /><path
       style="fill:#ebf5ff;fill-opacity:1;stroke:#ebf5ff;stroke-width:2;stroke-linecap:round;stroke-linejoin:round;stroke-miterlimit:0;stroke-dasharray:none;stroke-opacity:1;paint-order:fill markers stroke"
       d="M 69.163011,26.296078 76.08674,22.100562"
       id="path6" /><path
       style="fill:#ebf5ff;fill-opacity:1;stroke:#ebf5ff;stroke-width:2;stroke-linecap:round;stroke-linejoin:round;stroke-miterlimit:0;stroke-dasharray:none;stroke-opacity:1;paint-order:fill markers stroke"
       d="M 78.575921,29.092638 76.239997,22.307334"
       id="path7" /></g><g
     inkscape:groupmode="layer"
     id="layer13"
     inkscape:label="arrow"
     style="display:inline"><path
       style="display:inline;fill:#ebf5ff;fill-opacity:1;stroke-width:0.0923597"
       d="m 73.317683,56.650099 c -4.082288,0 -7.388758,-3.306472 -7.388758,-7.388761 v -1.47775 h 14.777518 v 1.47775 c 0,4.082289 -3.30647,7.388761 -7.38876,7.388761 z"
       id="path9" /><path
       style="display:inline;fill:#ebf5ff;fill-opacity:1;stroke-width:0.0923597"
       d="m 76.023952,26.617173 c -2.447525,0 -2.431034,4.49011 -2.431034,6.937636 0,0.812764 -0.664988,1.477753 -1.477752,1.477753 -0.812763,0 -1.477751,-0.664989 -1.477751,-1.477753 0,-4.082289 1.415483,-10.67178 5.497771,-10.67178 0.812764,0 1.366518,1.443629 1.366518,2.256392 0,0.812764 -0.664988,1.477752 -1.477752,1.477752 z"
       id="path8" /><path
       style="display:inline;fill:#ebf5ff;fill-opacity:1;stroke-width:0.0923597"
       d="m 83.033902,32.350316 c 1.329975,-1.902605 2.105796,-4.220828 2.105796,-6.733007 0,-6.529816 -5.292199,-11.822014 -11.822015,-11.822014 -6.529816,0 -11.822014,5.292198 -11.822014,11.822014 0,2.512179 0.77582,4.830402 2.105796,6.733007 0.341731,0.489505 0.748113,1.043663 1.182202,1.634763 v 0 c 1.191438,1.634763 2.613773,3.592784 3.675908,5.523097 0.960538,1.754831 1.450044,3.583548 1.690178,5.310671 h -4.497907 c -0.203191,-1.108314 -0.544921,-2.18892 -1.089842,-3.186402 -0.914359,-1.662471 -2.050381,-3.223347 -3.186402,-4.784222 v 0 0 c -0.48027,-0.655752 -0.960539,-1.311504 -1.422336,-1.976493 -1.819482,-2.613774 -2.890852,-5.809411 -2.890852,-9.254421 0,-8.977342 7.277928,-16.2552713 16.255269,-16.2552713 8.977343,0 16.255274,7.2779293 16.255274,16.2552713 0,3.44501 -1.071374,6.640647 -2.900088,9.263657 -0.461798,0.664988 -0.942069,1.320741 -1.422339,1.976493 v 0 0 c -1.136024,1.551639 -2.272044,3.112515 -3.186402,4.784222 -0.544922,0.997482 -0.886652,2.078088 -1.089843,3.186402 H 76.49485 c 0.240135,-1.727122 0.72964,-3.565076 1.690179,-5.310671 1.062133,-1.930313 2.48447,-3.888334 3.675907,-5.523097 v 0 0 0 c 0.43409,-0.5911 0.831236,-1.145258 1.172966,-1.634763 z"
       id="path1" /><path
       style="fill:#f0b914;stroke:#f0b914;stroke-width:2;stroke-linecap:round;stroke-linejoin:round;stroke-miterlimit:0;paint-order:fill markers stroke;stroke-opacity:1"
       d="m 47.096561,11.183884 6.674069,5.561725"
       id="path2" /><path
       style="fill:#f0b914;stroke:#f0b914;stroke-width:2.16951;stroke-linecap:round;stroke-linejoin:round;stroke-miterlimit:0;paint-order:fill markers stroke;stroke-opacity:1"
       d="m 58.638472,3.0372895 3.390484,6.4584882"
       id="path3" /><path
       style="fill:#f0b914;stroke:#f0b914;stroke-width:2;stroke-linecap:round;stroke-linejoin:round;stroke-miterlimit:0;paint-order:fill markers stroke;stroke-opacity:1"
       d="M 75.12765,2.2851242 V 6.7345039"
       id="path4" /><path
       style="fill:#f0b914;stroke:#f0b914;stroke-width:2;stroke-linecap:round;stroke-linejoin:round;stroke-miterlimit:0;paint-order:fill markers stroke;stroke-opacity:1"
       d="M 90.811715,4.0648761 85.694927,9.7378349"
       id="path10" /><path
       style="fill:#f0b914;stroke:#f0b914;stroke-width:2;stroke-linecap:round;stroke-linejoin:round;stroke-miterlimit:0;paint-order:fill markers stroke;stroke-opacity:1"
       d="m 91.70159,17.301782 6.785282,-4.783083"
       id="path11" /></g></svg>
