<?xml version="1.0" encoding="UTF-8" standalone="no"?>
<!-- Created with Inkscape (http://www.inkscape.org/) -->

<svg
   width="400"
   height="225"
   viewBox="0 0 105.83333 59.53125"
   version="1.1"
   id="svg1"
   inkscape:version="1.3 (0e150ed, 2023-07-21)"
   sodipodi:docname="homepage-eliminate-frustration.svg"
   xml:space="preserve"
   xmlns:inkscape="http://www.inkscape.org/namespaces/inkscape"
   xmlns:sodipodi="http://sodipodi.sourceforge.net/DTD/sodipodi-0.dtd"
   xmlns:xlink="http://www.w3.org/1999/xlink"
   xmlns="http://www.w3.org/2000/svg"
   xmlns:svg="http://www.w3.org/2000/svg"><sodipodi:namedview
     id="namedview1"
     pagecolor="#ffffff"
     bordercolor="#000000"
     borderopacity="0.25"
     inkscape:showpageshadow="2"
     inkscape:pageopacity="0.0"
     inkscape:pagecheckerboard="0"
     inkscape:deskcolor="#d1d1d1"
     inkscape:document-units="mm"
     inkscape:zoom="2.3786088"
     inkscape:cx="140.62842"
     inkscape:cy="67.26621"
     inkscape:window-width="1728"
     inkscape:window-height="741"
     inkscape:window-x="0"
     inkscape:window-y="38"
     inkscape:window-maximized="0"
     inkscape:current-layer="layer1"
     showgrid="true"><inkscape:grid
       id="grid3"
       units="mm"
       originx="0"
       originy="0"
       spacingx="0.99999997"
       spacingy="1"
       empcolor="#0099e5"
       empopacity="0.30196078"
       color="#0099e5"
       opacity="0.14901961"
       empspacing="5"
       dotted="false"
       gridanglex="30"
       gridanglez="30"
       visible="true" /></sodipodi:namedview><defs
     id="defs1"><linearGradient
       id="linearGradient1"
       inkscape:collect="always"><stop
         style="stop-color:#15243c;stop-opacity:1;"
         offset="0"
         id="stop1" /><stop
         style="stop-color:#3b64a5;stop-opacity:1;"
         offset="1"
         id="stop2" /></linearGradient><linearGradient
       inkscape:collect="always"
       xlink:href="#linearGradient1"
       id="linearGradient2"
       x1="-1.6011652"
       y1="29.416843"
       x2="107.47034"
       y2="29.416843"
       gradientUnits="userSpaceOnUse" /></defs><g
     inkscape:label="Layer 1"
     inkscape:groupmode="layer"
     id="layer1"><rect
       style="fill:url(#linearGradient2);fill-opacity:1;stroke:#f0b914;stroke-width:1;stroke-linecap:square;stroke-miterlimit:0;paint-order:fill markers stroke;stroke-opacity:0"
       id="rect1"
       width="108.0715"
       height="60.721397"
       x="-1.1011652"
       y="-0.94385588" /><path
       d="m 99.436365,29.301608 c 0.2743,1.642668 -0.831225,3.191405 -2.473889,3.465706 l -0.909499,0.151873 C 90.985766,33.765337 85.913088,31.95091 82.530535,28.261179 l -0.02472,0.02323 -6.572083,6.515814 1.356009,8.120532 c 0.234008,1.401368 -0.204854,2.829247 -1.186782,3.8613 l -4.67615,4.901864 c -1.144295,1.20225 -3.054639,1.244609 -4.256894,0.100313 -1.202254,-1.144296 -1.244616,-3.05464 -0.100318,-4.25689 l 4.156573,-4.357214 -1.487736,-8.909383 -0.0217,-0.129927 -11.803751,10.775906 c -1.224754,1.120298 -3.127404,1.037357 -4.258532,-0.195127 -1.131128,-1.232488 -1.037357,-3.127406 0.19513,-4.258534 L 74.395175,21.701972 c -0.898758,-0.126561 -1.833053,-0.123179 -2.761113,0.03179 l -6.84909,1.143697 c -1.642667,0.274301 -3.191403,-0.831215 -3.465705,-2.473882 -0.274301,-1.642668 0.831214,-3.191406 2.473882,-3.465707 l 6.849089,-1.143697 c 6.041675,-1.00887 12.093801,1.758112 15.277291,6.997846 1.90669,3.134869 5.522186,4.79197 9.141624,4.187577 l 0.909499,-0.151874 c 1.642667,-0.274301 3.191413,0.831216 3.465713,2.473883 z M 93.739048,13.463652 a 4.5163721,4.5163721 0 1 1 -8.909383,1.487736 4.5163721,4.5163721 0 1 1 8.909383,-1.487736 z"
       id="path1-3"
       style="fill:#ebf5ff;fill-opacity:1;stroke-width:0.094091" /><path
       style="fill:#f0b914;fill-opacity:1;stroke:#f0b914;stroke-width:1;stroke-linecap:square;stroke-miterlimit:0;stroke-opacity:0;paint-order:fill markers stroke"
       d="m 74.415871,3.2258002 0.778643,4.115676 1.446048,-2.0022208 0.778642,4.7830826 v -0.111234"
       id="path3" /><path
       style="fill:#f0b914;fill-opacity:1;stroke:#f0b914;stroke-width:1;stroke-linecap:square;stroke-miterlimit:0;stroke-opacity:0;paint-order:fill markers stroke"
       d="M 87.98648,3.0033312 85.873025,5.8954278 87.98648,5.5617244 84.983147,8.6762901"
       id="path4" /><path
       style="fill:#f0b914;fill-opacity:1;stroke:#f0b914;stroke-width:1;stroke-linecap:square;stroke-miterlimit:0;stroke-opacity:0;paint-order:fill markers stroke"
       d="M 101.33462,9.3436968 97.44141,9.0099935 98.664989,10.122338 95.327956,9.8998695"
       id="path5" /></g></svg>
