<?xml version="1.0" encoding="UTF-8" standalone="no"?>
<!-- Created with Inkscape (http://www.inkscape.org/) -->

<svg
   width="400"
   height="225"
   viewBox="0 0 105.83333 59.53125"
   version="1.1"
   id="svg1"
   inkscape:version="1.3 (0e150ed, 2023-07-21)"
   sodipodi:docname="homepage-trust-data.svg"
   xml:space="preserve"
   xmlns:inkscape="http://www.inkscape.org/namespaces/inkscape"
   xmlns:sodipodi="http://sodipodi.sourceforge.net/DTD/sodipodi-0.dtd"
   xmlns:xlink="http://www.w3.org/1999/xlink"
   xmlns="http://www.w3.org/2000/svg"
   xmlns:svg="http://www.w3.org/2000/svg"><sodipodi:namedview
     id="namedview1"
     pagecolor="#ffffff"
     bordercolor="#000000"
     borderopacity="0.25"
     inkscape:showpageshadow="2"
     inkscape:pageopacity="0.0"
     inkscape:pagecheckerboard="0"
     inkscape:deskcolor="#d1d1d1"
     inkscape:document-units="mm"
     inkscape:zoom="2.3786088"
     inkscape:cx="228.07449"
     inkscape:cy="67.26621"
     inkscape:window-width="1728"
     inkscape:window-height="1051"
     inkscape:window-x="0"
     inkscape:window-y="38"
     inkscape:window-maximized="0"
     inkscape:current-layer="layer1"
     showgrid="true"><inkscape:grid
       id="grid3"
       units="mm"
       originx="0"
       originy="0"
       spacingx="0.99999997"
       spacingy="1"
       empcolor="#0099e5"
       empopacity="0.30196078"
       color="#0099e5"
       opacity="0.14901961"
       empspacing="5"
       dotted="false"
       gridanglex="30"
       gridanglez="30"
       visible="true" /></sodipodi:namedview><defs
     id="defs1"><linearGradient
       id="linearGradient1"
       inkscape:collect="always"><stop
         style="stop-color:#15243c;stop-opacity:1;"
         offset="0"
         id="stop1" /><stop
         style="stop-color:#3b64a5;stop-opacity:1;"
         offset="1"
         id="stop2" /></linearGradient><linearGradient
       inkscape:collect="always"
       xlink:href="#linearGradient1"
       id="linearGradient2"
       x1="-1.6011652"
       y1="29.416843"
       x2="107.47034"
       y2="29.416843"
       gradientUnits="userSpaceOnUse" /></defs><g
     inkscape:label="Layer 1"
     inkscape:groupmode="layer"
     id="layer1"><rect
       style="fill:url(#linearGradient2);fill-opacity:1;stroke:#f0b914;stroke-width:1;stroke-linecap:square;stroke-miterlimit:0;paint-order:fill markers stroke;stroke-opacity:0"
       id="rect1"
       width="108.0715"
       height="60.721397"
       x="-1.1011652"
       y="-0.94385588" /><path
       style="fill:#ebf5ff;fill-opacity:1;stroke:#ebf5ff;stroke-width:10;stroke-linecap:square;stroke-miterlimit:0;stroke-opacity:0;paint-order:fill markers stroke;stroke-dasharray:none"
       d="m 76.974265,21.80196 7.230242,-1.557283"
       id="path5" /><path
       d="m 93.883783,25.502292 c 0,4.227034 -1.372182,8.131746 -3.683695,11.299718 l 11.658882,11.668089 c 1.15115,1.151153 1.15115,3.020624 0,4.171777 -1.15115,1.151154 -3.020627,1.151154 -4.171776,0 L 86.028313,40.973789 c -3.167973,2.320724 -7.072685,3.683691 -11.299718,3.683691 -10.581399,0 -19.155187,-8.573789 -19.155187,-19.155188 0,-10.581399 8.573788,-19.1551866 19.155187,-19.1551866 10.581398,0 19.155188,8.5737876 19.155188,19.1551866 z M 65.151001,26.23903 v 5.893904 c 0,1.224827 0.985387,2.210213 2.210214,2.210213 1.224827,0 2.210213,-0.985386 2.210213,-2.210213 V 26.23903 c 0,-1.224826 -0.985386,-2.210214 -2.210213,-2.210214 -1.224827,0 -2.210214,0.985388 -2.210214,2.210214 z m 7.367379,-8.840855 v 14.734759 c 0,1.224827 0.985388,2.210213 2.210215,2.210213 1.224826,0 2.210213,-0.985386 2.210213,-2.210213 V 17.398175 c 0,-1.224827 -0.985387,-2.210214 -2.210213,-2.210214 -1.224827,0 -2.210215,0.985387 -2.210215,2.210214 z m 7.36738,5.893903 v 8.840856 c 0,1.224827 0.985387,2.210213 2.210214,2.210213 1.224827,0 2.210214,-0.985386 2.210214,-2.210213 v -8.840856 c 0,-1.224826 -0.985387,-2.210214 -2.210214,-2.210214 -1.224827,0 -2.210214,0.985388 -2.210214,2.210214 z"
       id="path1"
       style="fill:#ebf5ff;fill-opacity:1;stroke-width:0.0920921" /><path
       d="m 53.083527,21.853443 c 0.846411,-0.846412 0.846411,-2.220983 0,-3.067393 -0.84641,-0.846412 -2.22098,-0.846412 -3.067391,0 l -9.296978,9.303748 -3.886719,-3.886718 c -0.846411,-0.846412 -2.220982,-0.846412 -3.067393,0 -0.84641,0.84641 -0.84641,2.220981 0,3.067393 l 5.41703,5.417029 c 0.846411,0.846411 2.220983,0.846411 3.067393,0 z m 6.500438,8.667247 c 0.846411,-0.84641 0.846411,-2.220982 0,-3.067393 -0.846411,-0.84641 -2.220981,-0.84641 -3.067396,0 L 40.719158,43.257482 33.582222,36.127317 c -0.846412,-0.846412 -2.220983,-0.846412 -3.067394,0 -0.84641,0.84641 -0.84641,2.220981 0,3.067393 l 8.667248,8.667245 c 0.846411,0.846415 2.220983,0.846415 3.067393,0 L 59.583965,30.527461 Z"
       id="path1-3"
       style="stroke-width:0.0677131;fill:#f0b914;fill-opacity:1" /></g><g
     inkscape:groupmode="layer"
     id="layer13"
     inkscape:label="arrow"
     style="display:inline" /></svg>
