<?xml version="1.0" encoding="UTF-8" standalone="no"?>
<!-- Created with Inkscape (http://www.inkscape.org/) -->

<svg
   width="400"
   height="225"
   viewBox="0 0 105.83333 59.53125"
   version="1.1"
   id="svg1"
   inkscape:version="1.3 (0e150ed, 2023-07-21)"
   sodipodi:docname="homepage-advisory-consulting.svg"
   xml:space="preserve"
   xmlns:inkscape="http://www.inkscape.org/namespaces/inkscape"
   xmlns:sodipodi="http://sodipodi.sourceforge.net/DTD/sodipodi-0.dtd"
   xmlns:xlink="http://www.w3.org/1999/xlink"
   xmlns="http://www.w3.org/2000/svg"
   xmlns:svg="http://www.w3.org/2000/svg"><sodipodi:namedview
     id="namedview1"
     pagecolor="#ffffff"
     bordercolor="#000000"
     borderopacity="0.25"
     inkscape:showpageshadow="2"
     inkscape:pageopacity="0.0"
     inkscape:pagecheckerboard="0"
     inkscape:deskcolor="#d1d1d1"
     inkscape:document-units="mm"
     inkscape:zoom="2.3786088"
     inkscape:cx="228.07449"
     inkscape:cy="134.53242"
     inkscape:window-width="1728"
     inkscape:window-height="1051"
     inkscape:window-x="0"
     inkscape:window-y="38"
     inkscape:window-maximized="0"
     inkscape:current-layer="layer13"
     showgrid="true"><inkscape:grid
       id="grid3"
       units="mm"
       originx="0"
       originy="0"
       spacingx="0.99999997"
       spacingy="1"
       empcolor="#0099e5"
       empopacity="0.30196078"
       color="#0099e5"
       opacity="0.14901961"
       empspacing="5"
       dotted="false"
       gridanglex="30"
       gridanglez="30"
       visible="true" /></sodipodi:namedview><defs
     id="defs1"><linearGradient
       id="linearGradient1"
       inkscape:collect="always"><stop
         style="stop-color:#15243c;stop-opacity:1;"
         offset="0"
         id="stop1" /><stop
         style="stop-color:#3b64a5;stop-opacity:1;"
         offset="1"
         id="stop2" /></linearGradient><linearGradient
       inkscape:collect="always"
       xlink:href="#linearGradient1"
       id="linearGradient2"
       x1="-1.6011652"
       y1="29.416843"
       x2="107.47034"
       y2="29.416843"
       gradientUnits="userSpaceOnUse" /></defs><g
     inkscape:label="Layer 1"
     inkscape:groupmode="layer"
     id="layer1"><rect
       style="fill:url(#linearGradient2);fill-opacity:1;stroke:#f0b914;stroke-width:1;stroke-linecap:square;stroke-miterlimit:0;paint-order:fill markers stroke;stroke-opacity:0"
       id="rect1"
       width="108.0715"
       height="60.721397"
       x="-1.1011652"
       y="-0.94385588" /><path
       style="fill:#ebf5ff;fill-opacity:1;stroke:#ebf5ff;stroke-width:10;stroke-linecap:square;stroke-miterlimit:0;stroke-dasharray:none;stroke-opacity:0;paint-order:fill markers stroke"
       d="m 69.565927,24.976962 7.230242,-1.557283"
       id="path5" /></g><g
     inkscape:groupmode="layer"
     id="layer13"
     inkscape:label="arrow"
     style="display:inline"><path
       d="m 56.281702,6.8768386 -5.828759,5.8287594 c -1.745206,0.479077 -3.364939,1.357382 -4.733728,2.566479 l -3.034148,2.703358 c -1.163471,1.037998 -2.680545,1.608327 -4.243246,1.608327 H 36.18332 v 14.600413 c 2.326941,0.06844 4.539816,1.015185 6.193769,2.669137 l 4.06074,4.060741 0.79846,0.79846 v 0 l 3.079775,3.079773 c 0.707208,0.707209 1.870678,0.707209 2.577885,0 0.193912,-0.193913 0.342198,-0.422044 0.422044,-0.661583 0.319384,-0.878302 1.060811,-1.539884 1.973337,-1.745202 0.912526,-0.205318 1.870677,0.06844 2.532259,0.741428 l 1.231909,1.209096 c 1.323163,1.323166 3.467599,1.323166 4.779354,0 0.615956,-0.615955 0.946746,-1.403011 0.980966,-2.212875 0.04563,-1.003779 0.638768,-1.893491 1.551294,-2.326941 0.912526,-0.43345 1.973337,-0.342198 2.783202,0.239538 1.07222,0.76424 2.566481,0.661581 3.524633,-0.296571 1.072217,-1.072218 1.072217,-2.806017 0,-3.866829 l -8.646182,-8.646181 -4.083554,3.764168 c -3.113994,2.874457 -7.893348,2.920083 -11.064375,0.102659 -3.615884,-3.216653 -3.69573,-8.828687 -0.182505,-12.147999 l 7.996007,-7.551152 c 3.125401,-2.9428964 7.254581,-4.5854434 11.554859,-4.5854434 4.11777,0 8.098666,1.517075 11.167033,4.2432454 l 3.433379,3.056962 h 4.437156 4.562632 4.562626 c 1.003778,0 1.825051,0.821274 1.825051,1.825052 V 39.65933 c 0,2.018964 -1.631139,3.650103 -3.650099,3.650103 H 90.93487 c -1.345974,0 -2.532259,-0.730021 -3.159621,-1.825052 H 78.09107 c -0.387827,0.764241 -0.90112,1.494262 -1.53989,2.133028 -1.950521,1.950529 -4.653881,2.714765 -7.18614,2.292721 -0.410637,0.832679 -0.96956,1.608331 -1.665359,2.304132 -3.113994,3.113993 -7.984601,3.421967 -11.452199,0.923931 -2.86305,2.372566 -7.129108,2.22428 -9.809653,-0.46767 l -3.068368,-3.079776 -0.79846,-0.798461 -4.06074,-4.060738 c -0.627362,-0.627362 -1.448634,-0.992372 -2.326941,-1.060811 0,2.007557 -1.642546,3.638696 -3.650104,3.638696 h -3.650103 c -2.018963,0 -3.650104,-1.631139 -3.650104,-3.650103 V 15.933658 c 0,-1.003778 0.821274,-1.825052 1.825053,-1.825052 h 4.562629 4.562629 2.258501 c 0.228132,0 0.444856,-0.07984 0.604549,-0.228131 l 3.022741,-2.691951 C 45.251545,8.3710996 49.346505,6.8083986 53.601157,6.8083986 h 1.174877 c 0.501889,0 1.015185,0.02282 1.505668,0.06844 z M 87.284765,36.009227 V 19.583762 H 81.80961 c -0.672987,0 -1.32316,-0.250945 -1.813643,-0.695801 L 75.78694,15.146605 c -2.075994,-1.847865 -4.756539,-2.86305 -7.539743,-2.86305 -2.89727,0 -5.680474,1.106437 -7.79069,3.091181 l -7.996008,7.551151 c -1.174877,1.117845 -1.152063,2.999929 0.05703,4.072146 1.060811,0.946746 2.669138,0.923933 3.707136,-0.03422 l 8.201326,-7.573966 c 1.106438,-1.026591 2.840237,-0.958152 3.866829,0.159692 1.026591,1.117844 0.958152,2.840236 -0.159693,3.866828 l -0.09125,0.09125 8.486488,8.48649 c 1.14066,1.140657 1.882086,2.543666 2.212876,4.003707 h 8.543521 z m -54.751549,1.825051 a 1.8250516,1.8250516 0 1 0 -3.650103,0 1.8250516,1.8250516 0 1 0 3.650103,0 z M 92.75992,39.65933 a 1.8250516,1.8250516 0 1 0 0,-3.650103 1.8250516,1.8250516 0 1 0 0,3.650103 z"
       id="path1"
       style="stroke-width:0.114065;fill:#ebf5ff;fill-opacity:1" /></g></svg>
