<?xml version="1.0" encoding="UTF-8" standalone="no"?>
<!-- Created with Inkscape (http://www.inkscape.org/) -->

<svg
   width="400"
   height="225"
   viewBox="0 0 105.83333 59.53125"
   version="1.1"
   id="svg1"
   inkscape:version="1.3 (0e150ed, 2023-07-21)"
   sodipodi:docname="services-specialized-training.svg"
   xml:space="preserve"
   xmlns:inkscape="http://www.inkscape.org/namespaces/inkscape"
   xmlns:sodipodi="http://sodipodi.sourceforge.net/DTD/sodipodi-0.dtd"
   xmlns:xlink="http://www.w3.org/1999/xlink"
   xmlns="http://www.w3.org/2000/svg"
   xmlns:svg="http://www.w3.org/2000/svg"><sodipodi:namedview
     id="namedview1"
     pagecolor="#ffffff"
     bordercolor="#000000"
     borderopacity="0.25"
     inkscape:showpageshadow="2"
     inkscape:pageopacity="0.0"
     inkscape:pagecheckerboard="0"
     inkscape:deskcolor="#d1d1d1"
     inkscape:document-units="mm"
     inkscape:zoom="2.3786088"
     inkscape:cx="172.15946"
     inkscape:cy="168.16553"
     inkscape:window-width="1728"
     inkscape:window-height="1051"
     inkscape:window-x="0"
     inkscape:window-y="38"
     inkscape:window-maximized="0"
     inkscape:current-layer="layer1"
     showgrid="true"><inkscape:grid
       id="grid3"
       units="mm"
       originx="0"
       originy="0"
       spacingx="0.99999997"
       spacingy="1"
       empcolor="#0099e5"
       empopacity="0.30196078"
       color="#0099e5"
       opacity="0.14901961"
       empspacing="5"
       dotted="false"
       gridanglex="30"
       gridanglez="30"
       visible="true" /></sodipodi:namedview><defs
     id="defs1"><linearGradient
       id="linearGradient1"
       inkscape:collect="always"><stop
         style="stop-color:#15243c;stop-opacity:1;"
         offset="0"
         id="stop1" /><stop
         style="stop-color:#3b64a5;stop-opacity:1;"
         offset="1"
         id="stop2" /></linearGradient><linearGradient
       inkscape:collect="always"
       xlink:href="#linearGradient1"
       id="linearGradient2"
       x1="-1.6011652"
       y1="29.416843"
       x2="107.47034"
       y2="29.416843"
       gradientUnits="userSpaceOnUse"
       gradientTransform="translate(-0.22246898,-0.33370346)" /></defs><g
     inkscape:label="Layer 1"
     inkscape:groupmode="layer"
     id="layer1"><rect
       style="fill:url(#linearGradient2);fill-opacity:1;stroke:#f0b914;stroke-width:1;stroke-linecap:square;stroke-miterlimit:0;stroke-opacity:0;paint-order:fill markers stroke"
       id="rect1"
       width="108.0715"
       height="60.721397"
       x="-1.3236343"
       y="-1.2775594" /><path
       style="fill:#ebf5ff;fill-opacity:1;stroke:#ebf5ff;stroke-width:10;stroke-linecap:square;stroke-miterlimit:0;stroke-dasharray:none;stroke-opacity:0;paint-order:fill markers stroke"
       d="m 69.565927,24.976962 7.230242,-1.557283"
       id="path5" /><path
       d="m 58.831615,13.244452 c 0,-2.446517 2.078784,-4.4356103 4.635614,-4.4356103 h 27.813682 c 2.55683,0 4.635612,1.9890933 4.635612,4.4356103 V 30.986893 H 91.280911 V 13.244452 H 63.467229 v 17.742441 h -4.635614 z m -4.635614,21.290929 c 0,-0.734646 0.622911,-1.330683 1.390685,-1.330683 h 43.574763 c 0.767779,0 1.390691,0.596037 1.390691,1.330683 0,2.938592 -2.491641,5.322733 -5.56274,5.322733 H 59.758738 c -3.071095,0 -5.562737,-2.384141 -5.562737,-5.322733 z m 20.353241,-13.459304 -2.245375,2.148499 2.245375,2.148497 c 0.680856,0.651481 0.680856,1.704939 0,2.349488 -0.680855,0.64455 -1.781814,0.651481 -2.455426,0 l -3.47671,-3.326708 c -0.680857,-0.651479 -0.680857,-1.704937 0,-2.349487 l 3.47671,-3.326708 c 0.680856,-0.651479 1.781814,-0.651479 2.455426,0 0.673613,0.651481 0.680856,1.704938 0,2.349488 z m 8.112323,-2.356419 3.476711,3.326708 c 0.680855,0.651481 0.680855,1.704938 0,2.349487 l -3.476711,3.326708 c -0.680854,0.651481 -1.781814,0.651481 -2.455426,0 -0.673612,-0.65148 -0.680855,-1.704938 0,-2.349488 l 2.245376,-2.148497 -2.245376,-2.148499 c -0.680855,-0.651481 -0.680855,-1.704938 0,-2.349488 0.680855,-0.64455 1.781812,-0.651481 2.455426,0 z"
       id="path1"
       style="fill:#ebf5ff;fill-opacity:1;stroke-width:0.0708517" /><path
       id="path1-5"
       style="fill:#f0b914;fill-opacity:1;stroke-width:0.100883"
       d="M 81.029163 15.3479 A 4.8258865 4.8590171 0 0 0 76.203617 20.206519 A 4.8258865 4.8590171 0 0 0 85.855225 20.206519 A 4.8258865 4.8590171 0 0 0 81.029163 15.3479 z M 79.541398 28.294914 C 76.153227 28.294914 73.01635 30.086925 71.266968 33.012455 L 65.40531 42.831494 C 64.490403 44.360066 64.983226 46.354483 66.501367 47.275667 C 68.01951 48.196859 70.000145 47.700422 70.915051 46.171859 L 73.790328 41.353548 L 73.790328 51.056832 L 80.225077 51.056832 L 80.225077 50.980351 L 81.833765 50.980351 L 81.833765 51.056832 L 88.267997 51.056832 L 88.267997 41.353548 L 91.153609 46.171859 C 92.068512 47.700422 94.049152 48.196859 95.567293 47.275667 C 97.085434 46.354483 97.578254 44.360066 96.66335 42.831494 L 90.801693 33.012455 C 89.052308 30.086925 85.915433 28.294914 82.527262 28.294914 L 79.541398 28.294914 z " /></g><g
     inkscape:groupmode="layer"
     id="layer2"
     inkscape:label="Layer 2" /><g
     inkscape:groupmode="layer"
     id="layer13"
     inkscape:label="arrow"
     style="display:inline" /></svg>
