<?xml version="1.0" encoding="UTF-8" standalone="no"?>
<!-- Created with Inkscape (http://www.inkscape.org/) -->

<svg
   width="400"
   height="225"
   viewBox="0 0 105.83333 59.53125"
   version="1.1"
   id="svg1"
   inkscape:version="1.3 (0e150ed, 2023-07-21)"
   sodipodi:docname="services-project-resources.svg"
   xml:space="preserve"
   xmlns:inkscape="http://www.inkscape.org/namespaces/inkscape"
   xmlns:sodipodi="http://sodipodi.sourceforge.net/DTD/sodipodi-0.dtd"
   xmlns:xlink="http://www.w3.org/1999/xlink"
   xmlns="http://www.w3.org/2000/svg"
   xmlns:svg="http://www.w3.org/2000/svg"><sodipodi:namedview
     id="namedview1"
     pagecolor="#ffffff"
     bordercolor="#000000"
     borderopacity="0.25"
     inkscape:showpageshadow="2"
     inkscape:pageopacity="0.0"
     inkscape:pagecheckerboard="0"
     inkscape:deskcolor="#d1d1d1"
     inkscape:document-units="mm"
     inkscape:zoom="2.3786088"
     inkscape:cx="228.07449"
     inkscape:cy="168.16553"
     inkscape:window-width="1728"
     inkscape:window-height="1051"
     inkscape:window-x="0"
     inkscape:window-y="38"
     inkscape:window-maximized="0"
     inkscape:current-layer="layer13"
     showgrid="true"><inkscape:grid
       id="grid3"
       units="mm"
       originx="0"
       originy="0"
       spacingx="0.99999997"
       spacingy="1"
       empcolor="#0099e5"
       empopacity="0.30196078"
       color="#0099e5"
       opacity="0.14901961"
       empspacing="5"
       dotted="false"
       gridanglex="30"
       gridanglez="30"
       visible="true" /></sodipodi:namedview><defs
     id="defs1"><linearGradient
       id="linearGradient1"
       inkscape:collect="always"><stop
         style="stop-color:#15243c;stop-opacity:1;"
         offset="0"
         id="stop1" /><stop
         style="stop-color:#3b64a5;stop-opacity:1;"
         offset="1"
         id="stop2" /></linearGradient><linearGradient
       inkscape:collect="always"
       xlink:href="#linearGradient1"
       id="linearGradient2"
       x1="-1.6011652"
       y1="29.416843"
       x2="107.47034"
       y2="29.416843"
       gradientUnits="userSpaceOnUse" /></defs><g
     inkscape:label="Layer 1"
     inkscape:groupmode="layer"
     id="layer1"><rect
       style="fill:url(#linearGradient2);fill-opacity:1;stroke:#f0b914;stroke-width:1;stroke-linecap:square;stroke-miterlimit:0;paint-order:fill markers stroke;stroke-opacity:0"
       id="rect1"
       width="108.0715"
       height="60.721397"
       x="-1.1011652"
       y="-0.94385588" /><path
       style="fill:#ebf5ff;fill-opacity:1;stroke:#ebf5ff;stroke-width:10;stroke-linecap:square;stroke-miterlimit:0;stroke-dasharray:none;stroke-opacity:0;paint-order:fill markers stroke"
       d="m 69.565927,24.976962 7.230242,-1.557283"
       id="path5" /></g><g
     inkscape:groupmode="layer"
     id="layer13"
     inkscape:label="arrow"
     style="display:inline"><path
       d="m 45.596337,10.255334 a 4.645848,4.645848 0 1 1 9.291695,0 4.645848,4.645848 0 1 1 -9.291695,0 z m 6.194464,18.747931 v 6.300931 l 4.936212,4.936214 c 0.687199,0.687198 1.142105,1.567974 1.296967,2.526179 l 1.471185,8.798075 c 0.280686,1.68412 -0.861418,3.281128 -2.545538,3.561818 -1.684119,0.280683 -3.28113,-0.86142 -3.561817,-2.54554 l -1.384075,-8.314133 -7.685006,-7.685005 c -1.161463,-1.161461 -1.819624,-2.739115 -1.819624,-4.384519 v -8.527066 c 0,-3.135948 2.535858,-5.671806 5.671805,-5.671806 2.332603,0 4.500665,1.161461 5.797632,3.097232 l 4.587774,6.881661 0.977564,0.483943 v -7.365604 c 0,-1.713157 1.384075,-3.097232 3.097231,-3.097232 h 12.388928 c 1.713155,0 3.097232,1.384075 3.097232,3.097232 v 7.375283 l 0.977562,-0.483942 4.587774,-6.891341 c 1.287291,-1.935771 3.465026,-3.097232 5.797629,-3.097232 3.135946,0 5.671803,2.535858 5.671803,5.671806 v 8.527066 c 0,1.645404 -0.648483,3.223058 -1.809938,4.384519 l -7.685008,7.685005 -1.384075,8.314133 c -0.280688,1.68412 -1.877697,2.826223 -3.561816,2.54554 -1.684118,-0.28069 -2.826222,-1.877698 -2.545535,-3.561818 l 1.471181,-8.798075 c 0.154865,-0.958205 0.609771,-1.838981 1.296968,-2.526179 l 4.936213,-4.936214 v -6.300931 l -1.83898,2.758472 c -0.445229,0.67752 -1.064676,1.219535 -1.790587,1.577653 l -5.768595,2.884297 c -0.232292,0.125825 -0.474266,0.212935 -0.735592,0.271008 -0.25165,0.05808 -0.512982,0.0871 -0.76463,0.07742 H 62.698863 c -0.241971,0.0097 -0.483941,-0.01936 -0.725913,-0.06776 -0.280686,-0.05808 -0.542015,-0.154861 -0.783987,-0.290366 l -5.758915,-2.884278 c -0.725914,-0.358118 -1.335681,-0.909813 -1.790587,-1.577652 l -1.838982,-2.758472 z m -13.714931,21.912916 4.62649,-11.566225 4.761995,4.761994 -3.639248,9.098119 c -0.638804,1.587333 -2.43907,2.361643 -4.026401,1.722834 -1.587332,-0.638802 -2.36164,-2.429393 -1.722836,-4.016722 z M 87.408966,5.6094858 a 4.645848,4.645848 0 1 1 0,9.2916942 4.645848,4.645848 0 1 1 0,-9.2916942 z m 7.539826,33.7404702 4.626482,11.566225 c 0.638806,1.587329 -0.1355,3.387602 -1.722833,4.026403 -1.587323,0.638803 -3.387593,-0.1355 -4.026395,-1.722839 l -3.639253,-9.098116 4.761999,-4.761995 z"
       id="path1"
       style="stroke-width:0.0967881;fill:#ebf5ff;fill-opacity:1" /></g></svg>
